<?xml version="1.0" standalone="no"?><!DOCTYPE svg PUBLIC "-//W3C//DTD SVG 1.1//EN" "http://www.w3.org/Graphics/SVG/1.1/DTD/svg11.dtd"><svg class="icon" width="200px" height="200.00px" viewBox="0 0 1024 1024" version="1.1" xmlns="http://www.w3.org/2000/svg"><path fill="#333333" d="M597.45 127.96h-85.32c-23.47 0-42.66 19.2-42.66 42.66v681.3c0 2.99 0.43 5.97 0.85 8.53 0.85 5.12 2.56 9.38 5.12 13.65 1.28 2.14 2.98 3.84 4.27 5.97 7.25 9.81 19.19 15.78 32.42 15.78h85.32c188.56 0 341.29-152.73 341.29-341.29v-85.32c0-188.56-152.73-341.28-341.29-341.28z m255.97 426.61c0 141.21-114.76 255.97-255.97 255.97h-42.66V213.28h42.66c141.21 0 255.97 114.76 255.97 255.97v85.32zM341.49 127.89c-23.56 0-42.66 19.08-42.66 42.66v469.27c0 94.11-76.55 170.64-170.64 170.64-23.56 0-42.66 19.08-42.66 42.66s19.1 42.66 42.66 42.66c141.15 0 255.97-114.82 255.97-255.97V170.55c-0.01-23.58-19.11-42.66-42.67-42.66z"  /></svg>